<svg width="42" height="39" viewBox="" fill="" xmlns="http://www.w3.org/2000/svg">
<path fill-rule="evenodd" clip-rule="evenodd" d="M0 38.6642H41.615V0.250488H0V38.6642Z" fill="#01D4CF"></path>
<path fill-rule="evenodd" clip-rule="evenodd" d="M27.2105 16.2416C26.3255 16.2416 25.6092 15.5253 25.6092 14.6403C25.6092 13.7566 26.3255 13.0403 27.2105 13.0403C28.0942 13.0403 28.8117 13.7566 28.8117 14.6403C28.8117 15.5253 28.0942 16.2416 27.2105 16.2416ZM22.408 6.65283V19.2641L28.4655 18.7353C28.8142 22.7291 26.1805 26.2953 22.408 27.2328V32.2616C29.4805 32.2616 35.2142 26.5291 35.2142 19.4578V6.65283H22.408Z" fill="white"></path>
<path fill-rule="evenodd" clip-rule="evenodd" d="M14.4219 13.0403C15.3069 13.0403 16.0231 13.7578 16.0231 14.6416C16.0231 15.5253 15.3069 16.2416 14.4219 16.2416C13.5381 16.2416 12.8219 15.5253 12.8219 14.6416C12.8219 13.7578 13.5381 13.0403 14.4219 13.0403ZM12.4506 20.1366L19.2081 19.5453V6.65283H6.40186V19.4566C6.40186 26.5291 12.1356 32.2616 19.2081 32.2616V27.3766C15.6419 26.8178 12.7794 23.8928 12.4506 20.1366Z" fill="white"></path>
</svg>